<svg width="67" height="84" viewBox="0 0 67 84" fill="none" xmlns="http://www.w3.org/2000/svg">
<path d="M32.1771 38.355V45.9695H27.6653H27.5627V46.072V48.1229V48.2254H27.6653H38.9449H39.0474V48.1229V46.072V45.9695H38.9449H34.433V38.355L45.6859 26.0304L45.7127 26.0011V25.9613V23V22.8975H45.6102H21H20.8975V23V25.9613V26.0011L20.9243 26.0304L32.1771 38.355ZM23.1783 25.1534H43.4318L40.3422 28.5373H26.268L23.1783 25.1534ZM28.3277 30.7932H38.2824L33.3202 36.228H33.2899L28.3277 30.7932Z" fill="#FCC436" stroke="#FCC436" stroke-width="0.205085"/>
<path d="M33.305 39.4068L26.2007 30.178L40.4094 30.178L33.305 39.4068Z" fill="#FCC436"/>
<path d="M20.3003 82V75.3625H21.8033C22.2413 75.3625 22.6358 75.4375 22.9868 75.5875C23.3378 75.7375 23.6378 75.955 23.8868 76.24C24.1358 76.525 24.3263 76.873 24.4583 77.284C24.5933 77.695 24.6608 78.1615 24.6608 78.6835C24.6608 79.2025 24.5933 79.6675 24.4583 80.0785C24.3263 80.4895 24.1358 80.8375 23.8868 81.1225C23.6378 81.4075 23.3378 81.625 22.9868 81.775C22.6358 81.925 22.2413 82 21.8033 82H20.3003ZM20.8673 81.82L20.6153 81.5095H21.7448C22.2128 81.5095 22.6223 81.397 22.9733 81.172C23.3273 80.944 23.6018 80.6185 23.7968 80.1955C23.9948 79.7725 24.0938 79.2685 24.0938 78.6835C24.0938 78.0925 23.9948 77.587 23.7968 77.167C23.6018 76.744 23.3273 76.42 22.9733 76.195C22.6223 75.967 22.2128 75.853 21.7448 75.853H20.6153L20.8673 75.5425V81.82ZM25.9009 82V77.221H26.4589V78.6295L26.2609 78.5665C26.2789 78.4165 26.3224 78.2605 26.3914 78.0985C26.4634 77.9335 26.5624 77.779 26.6884 77.635C26.8144 77.491 26.9719 77.3755 27.1609 77.2885C27.3529 77.1985 27.5809 77.1535 27.8449 77.1535C28.0369 77.1535 28.1914 77.17 28.3084 77.203C28.4254 77.236 28.4989 77.2615 28.5289 77.2795L28.3759 77.8195C28.3459 77.7985 28.2844 77.7715 28.1914 77.7385C28.0984 77.7055 27.9649 77.689 27.7909 77.689C27.5389 77.689 27.3274 77.7385 27.1564 77.8375C26.9854 77.9335 26.8489 78.0595 26.7469 78.2155C26.6449 78.3715 26.5714 78.538 26.5264 78.715C26.4814 78.889 26.4589 79.057 26.4589 79.219V82H25.9009ZM29.4921 82V77.221H30.0411V82H29.4921ZM29.7711 76.015C29.6541 76.015 29.5536 75.982 29.4696 75.916C29.3856 75.847 29.3436 75.7555 29.3436 75.6415C29.3436 75.5305 29.3856 75.442 29.4696 75.376C29.5536 75.307 29.6541 75.2725 29.7711 75.2725C29.8851 75.2725 29.9841 75.307 30.0681 75.376C30.1521 75.442 30.1941 75.5305 30.1941 75.6415C30.1941 75.7555 30.1521 75.847 30.0681 75.916C29.9841 75.982 29.8851 76.015 29.7711 76.015ZM35.0517 82V79.624C35.0517 79.477 35.0517 79.36 35.0517 79.273C35.0517 79.186 35.0517 79.1005 35.0517 79.0165C35.0517 78.7495 35.0037 78.517 34.9077 78.319C34.8147 78.118 34.6707 77.962 34.4757 77.851C34.2807 77.737 34.0302 77.68 33.7242 77.68C33.4542 77.68 33.2007 77.7475 32.9637 77.8825C32.7267 78.0145 32.5347 78.1945 32.3877 78.4225C32.2437 78.6505 32.1717 78.907 32.1717 79.192L31.8342 79.066C31.8342 78.703 31.9272 78.3775 32.1132 78.0895C32.3022 77.8015 32.5482 77.5735 32.8512 77.4055C33.1572 77.2375 33.4812 77.1535 33.8232 77.1535C34.1862 77.1535 34.5012 77.2225 34.7682 77.3605C35.0352 77.4955 35.2407 77.692 35.3847 77.95C35.5317 78.205 35.6052 78.5155 35.6052 78.8815C35.6052 79.0075 35.6052 79.1425 35.6052 79.2865C35.6052 79.4305 35.6052 79.561 35.6052 79.678V82H35.0517ZM31.6137 82V77.221H32.1717V82H31.6137ZM37.0893 82V74.9665H37.6203V79.372L37.4628 79.3045L39.9423 77.221H40.6668L38.3448 79.2145L38.4798 78.9175L40.7073 82H40.0998L38.1063 79.219L38.2503 79.3L37.5303 79.9075L37.6203 79.6285V82H37.0893ZM43.1988 82.0855C42.9108 82.0855 42.6483 82.0555 42.4113 81.9955C42.1743 81.9355 41.9703 81.8485 41.7993 81.7345C41.6283 81.6175 41.4948 81.4765 41.3988 81.3115C41.3058 81.1435 41.2578 80.9515 41.2548 80.7355C41.2518 80.7085 41.2503 80.6815 41.2503 80.6545C41.2503 80.6245 41.2503 80.599 41.2503 80.578H41.8128C41.8128 80.599 41.8128 80.62 41.8128 80.641C41.8128 80.659 41.8128 80.683 41.8128 80.713C41.8218 80.989 41.9478 81.2035 42.1908 81.3565C42.4368 81.5065 42.7758 81.5815 43.2078 81.5815C43.4838 81.5815 43.7253 81.5515 43.9323 81.4915C44.1423 81.4285 44.3073 81.337 44.4273 81.217C44.5473 81.094 44.6073 80.9455 44.6073 80.7715C44.6073 80.4805 44.4813 80.2735 44.2293 80.1505C43.9803 80.0245 43.6128 79.9195 43.1268 79.8355C42.8748 79.7935 42.6393 79.7395 42.4203 79.6735C42.2043 79.6045 42.0138 79.519 41.8488 79.417C41.6868 79.312 41.5593 79.1815 41.4663 79.0255C41.3733 78.8695 41.3268 78.682 41.3268 78.463C41.3268 78.184 41.4108 77.947 41.5788 77.752C41.7468 77.557 41.9718 77.4085 42.2538 77.3065C42.5388 77.2045 42.8523 77.1535 43.1943 77.1535C43.5333 77.1535 43.8438 77.206 44.1258 77.311C44.4108 77.413 44.6388 77.566 44.8098 77.77C44.9808 77.974 45.0663 78.232 45.0663 78.544C45.0663 78.556 45.0663 78.571 45.0663 78.589C45.0663 78.607 45.0663 78.625 45.0663 78.643H44.5083C44.5083 78.628 44.5083 78.6145 44.5083 78.6025C44.5083 78.5875 44.5083 78.574 44.5083 78.562C44.5083 78.343 44.4468 78.1675 44.3238 78.0355C44.2008 77.9035 44.0403 77.8075 43.8423 77.7475C43.6443 77.6845 43.4328 77.653 43.2078 77.653C42.9858 77.653 42.7728 77.68 42.5688 77.734C42.3648 77.788 42.1983 77.8735 42.0693 77.9905C41.9433 78.1045 41.8803 78.256 41.8803 78.445C41.8803 78.634 41.9403 78.787 42.0603 78.904C42.1803 79.018 42.3498 79.111 42.5688 79.183C42.7878 79.252 43.0428 79.3135 43.3338 79.3675C43.6008 79.4155 43.8453 79.474 44.0673 79.543C44.2893 79.609 44.4813 79.693 44.6433 79.795C44.8053 79.897 44.9313 80.026 45.0213 80.182C45.1113 80.335 45.1563 80.5225 45.1563 80.7445C45.1563 80.9635 45.1068 81.157 45.0078 81.325C44.9088 81.49 44.7693 81.6295 44.5893 81.7435C44.4123 81.8575 44.2053 81.943 43.9683 82C43.7313 82.057 43.4748 82.0855 43.1988 82.0855Z" fill="#797D86"/>
<rect x="1.3344" y="1.61464" width="64.051" height="64.051" rx="32.0255" stroke="#FCC436" stroke-width="2.66879"/>
</svg>
