<svg width="50" height="39" viewBox="0 0 50 39" fill="none" xmlns="http://www.w3.org/2000/svg">
<g filter="url(#filter0_d_23_2585)">
<path d="M45.334 7.90386C45.334 4.04507 42.0094 0.00785174 42.0094 1.21871C42.0094 2.42957 42.6243 18.5108 42.6243 18.5108L42.0094 29.0269C42.0094 29.7441 42.5908 30.3255 43.308 30.3255C44.0252 30.3255 44.6066 29.7441 44.6066 29.0269L44.2631 18.4505C44.2631 18.4505 45.334 11.7627 45.334 7.90386Z" stroke="#FCC436" stroke-width="0.820339" stroke-miterlimit="10"/>
<mask id="path-2-inside-1_23_2585" fill="white">
<path d="M45.334 7.90386C45.334 4.04507 42.0094 0.00785174 42.0094 1.21871C42.0094 2.42957 42.6243 18.5108 42.6243 18.5108L42.0094 29.0269C42.0094 29.7441 42.5908 30.3255 43.308 30.3255C44.0252 30.3255 44.6066 29.7441 44.6066 29.0269L44.2631 18.4505C44.2631 18.4505 45.334 11.7627 45.334 7.90386Z"/>
</mask>
<path d="M42.6243 18.5108L46.719 18.7503L46.7306 18.5523L46.723 18.3541L42.6243 18.5108ZM42.0094 29.0269L37.9147 28.7875L37.9077 28.9071V29.0269H42.0094ZM44.6066 29.0269H48.7082V28.9604L48.7061 28.8938L44.6066 29.0269ZM44.2631 18.4505L40.213 17.8019L40.1508 18.1904L40.1636 18.5836L44.2631 18.4505ZM49.4357 7.90386C49.4357 4.92781 48.2103 2.19614 47.1575 0.498499C46.6399 -0.336273 45.9674 -1.2418 45.206 -1.89779C45 -2.07525 44.6995 -2.31139 44.318 -2.52472C44.0018 -2.7015 43.2572 -3.07782 42.2446 -3.10061C40.9607 -3.12951 39.5381 -2.56044 38.6492 -1.24606C37.9565 -0.22197 37.9077 0.801142 37.9077 1.21871H46.1111C46.1111 1.48492 46.0882 2.39768 45.4443 3.34976C44.604 4.59214 43.253 5.12755 42.06 5.1007C41.1382 5.07995 40.504 4.74139 40.3145 4.6354C40.0595 4.49287 39.9019 4.36058 39.8518 4.31738C39.7137 4.19839 39.8724 4.31631 40.1859 4.82183C40.7954 5.80478 41.2323 7.02112 41.2323 7.90386H49.4357ZM37.9077 1.21871C37.9077 1.92396 38.067 6.3726 38.218 10.4699C38.2949 12.5574 38.3718 14.6067 38.4295 16.134C38.4583 16.8977 38.4824 17.531 38.4992 17.9734C38.5076 18.1946 38.5142 18.3681 38.5187 18.4863C38.521 18.5454 38.5227 18.5907 38.5239 18.6212C38.5245 18.6365 38.5249 18.6481 38.5252 18.6558C38.5253 18.6597 38.5255 18.6626 38.5255 18.6646C38.5256 18.6656 38.5256 18.6663 38.5256 18.6668C38.5256 18.6671 38.5256 18.6673 38.5256 18.6674C38.5256 18.6675 38.5256 18.6676 42.6243 18.5108C46.723 18.3541 46.723 18.3541 46.723 18.3539C46.723 18.3538 46.723 18.3536 46.723 18.3534C46.723 18.3529 46.723 18.3522 46.7229 18.3512C46.7229 18.3493 46.7227 18.3464 46.7226 18.3425C46.7223 18.3348 46.7219 18.3233 46.7213 18.3081C46.7201 18.2777 46.7184 18.2326 46.7161 18.1736C46.7116 18.0557 46.705 17.8825 46.6966 17.6616C46.6798 17.2198 46.6558 16.5873 46.627 15.8244C46.5694 14.2986 46.4926 12.252 46.4158 10.1678C46.339 8.083 46.2622 5.96334 46.2048 4.29059C46.176 3.45372 46.1522 2.73266 46.1356 2.1853C46.1273 1.91127 46.121 1.68528 46.1168 1.51224C46.1147 1.4257 46.1132 1.35607 46.1122 1.30248C46.1117 1.27584 46.1114 1.25516 46.1113 1.23973C46.1111 1.22358 46.1111 1.21739 46.1111 1.21871H37.9077ZM38.5296 18.2714L37.9147 28.7875L46.1041 29.2664L46.719 18.7503L38.5296 18.2714ZM37.9077 29.0269C37.9077 32.0094 40.3255 34.4272 43.308 34.4272V26.2238C44.8561 26.2238 46.1111 27.4788 46.1111 29.0269H37.9077ZM43.308 34.4272C46.2905 34.4272 48.7082 32.0094 48.7082 29.0269H40.5049C40.5049 27.4788 41.7599 26.2238 43.308 26.2238V34.4272ZM48.7061 28.8938L48.3627 18.3174L40.1636 18.5836L40.507 29.16L48.7061 28.8938ZM44.2631 18.4505C48.3132 19.099 48.3133 19.0988 48.3133 19.0985C48.3133 19.0984 48.3134 19.0982 48.3134 19.098C48.3135 19.0975 48.3136 19.097 48.3137 19.0963C48.3139 19.095 48.3141 19.0933 48.3145 19.0912C48.3152 19.087 48.3161 19.0812 48.3172 19.0738C48.3196 19.0591 48.3229 19.038 48.3272 19.011C48.3357 18.9569 48.3478 18.8788 48.3632 18.779C48.3939 18.5795 48.4373 18.2929 48.4891 17.9381C48.5926 17.2294 48.7307 16.2429 48.869 15.13C49.1384 12.9623 49.4357 10.1077 49.4357 7.90386H41.2323C41.2323 9.55881 40.9942 11.9776 40.7282 14.1184C40.5988 15.1598 40.4691 16.0865 40.3719 16.7523C40.3233 17.0847 40.283 17.3508 40.2551 17.5321C40.2412 17.6227 40.2304 17.6921 40.2232 17.7378C40.2196 17.7607 40.2169 17.7777 40.2152 17.7885C40.2143 17.7939 40.2137 17.7977 40.2134 17.8C40.2132 17.8011 40.2131 17.8018 40.213 17.8022C40.213 17.8023 40.213 17.8024 40.213 17.8024C40.213 17.8023 40.213 17.8022 40.213 17.8022C40.213 17.8021 40.213 17.8019 44.2631 18.4505Z" fill="#FCC436" mask="url(#path-2-inside-1_23_2585)"/>
<path d="M9.81844 1.69908C9.81844 1.69908 9.89084 4.39883 9.89084 6.96209C9.89084 8.88457 9.30693 10.0919 8.4748 10.5754L8.49331 29.027C8.49331 29.7442 7.91193 30.3255 7.19473 30.3255C6.47752 30.3255 5.89615 29.7442 5.89615 29.027L6.42259 10.5792C5.58696 10.0982 5 8.88957 5 6.96209C5 4.39883 5.0724 1.69908 5.0724 1.69908" stroke="#FCC436" stroke-width="1.29858" stroke-miterlimit="10" stroke-linecap="round" stroke-linejoin="round"/>
<path d="M7.44543 1.6991V7.92247" stroke="#FCC436" stroke-width="1.29858" stroke-miterlimit="10" stroke-linecap="round" stroke-linejoin="round"/>
<path d="M25.7772 28.5581C32.9341 28.5581 38.7359 22.7563 38.7359 15.5994C38.7359 8.44251 32.9341 2.6407 25.7772 2.6407C18.6203 2.6407 12.8185 8.44251 12.8185 15.5994C12.8185 22.7563 18.6203 28.5581 25.7772 28.5581Z" stroke="#FCC436" stroke-width="2.46102" stroke-miterlimit="10" stroke-linecap="round" stroke-linejoin="round"/>
<path d="M25.7799 23.515C30.1366 23.515 33.6684 19.9832 33.6684 15.6265C33.6684 11.2697 30.1366 7.73792 25.7799 7.73792C21.4232 7.73792 17.8914 11.2697 17.8914 15.6265C17.8914 19.9832 21.4232 23.515 25.7799 23.515Z" fill="#FCC436"/>
</g>
<defs>
<filter id="filter0_d_23_2585" x="0.350708" y="0.589828" width="49.3935" height="38.385" filterUnits="userSpaceOnUse" color-interpolation-filters="sRGB">
<feFlood flood-opacity="0" result="BackgroundImageFix"/>
<feColorMatrix in="SourceAlpha" type="matrix" values="0 0 0 0 0 0 0 0 0 0 0 0 0 0 0 0 0 0 127 0" result="hardAlpha"/>
<feOffset dy="4"/>
<feGaussianBlur stdDeviation="2"/>
<feComposite in2="hardAlpha" operator="out"/>
<feColorMatrix type="matrix" values="0 0 0 0 0 0 0 0 0 0 0 0 0 0 0 0 0 0 0.25 0"/>
<feBlend mode="normal" in2="BackgroundImageFix" result="effect1_dropShadow_23_2585"/>
<feBlend mode="normal" in="SourceGraphic" in2="effect1_dropShadow_23_2585" result="shape"/>
</filter>
</defs>
</svg>
