<svg width="46" height="60" viewBox="0 0 46 60" fill="none" xmlns="http://www.w3.org/2000/svg">
<rect x="0.905605" y="0.905605" width="43.469" height="43.469" rx="21.7345" stroke="#FCC436" stroke-width="1.81121"/>
<path d="M15.2166 57.7994C14.7276 57.7994 14.2866 57.6629 13.8936 57.3899C13.5036 57.1169 13.1946 56.7269 12.9666 56.2199C12.7386 55.7129 12.6246 55.1054 12.6246 54.3974C12.6246 53.6924 12.7401 53.0864 12.9711 52.5794C13.2051 52.0724 13.5231 51.6839 13.9251 51.4139C14.3271 51.1409 14.7816 51.0044 15.2886 51.0044C15.6936 51.0044 16.0356 51.0764 16.3146 51.2204C16.5936 51.3614 16.8201 51.5459 16.9941 51.7739C17.1711 51.9989 17.2986 52.2389 17.3766 52.4939C17.4576 52.7489 17.4981 52.9889 17.4981 53.2139C17.4981 53.2229 17.4981 53.2319 17.4981 53.2409C17.4981 53.2499 17.4981 53.2589 17.4981 53.2679H16.9536C16.9536 53.2589 16.9536 53.2499 16.9536 53.2409C16.9536 53.2319 16.9536 53.2229 16.9536 53.2139C16.9536 53.0219 16.9221 52.8254 16.8591 52.6244C16.7961 52.4234 16.6971 52.2404 16.5621 52.0754C16.4271 51.9074 16.2546 51.7724 16.0446 51.6704C15.8346 51.5654 15.5826 51.5129 15.2886 51.5129C14.8926 51.5129 14.5356 51.6254 14.2176 51.8504C13.8996 52.0724 13.6476 52.3979 13.4616 52.8269C13.2786 53.2559 13.1871 53.7794 13.1871 54.3974C13.1871 54.8684 13.2381 55.2854 13.3401 55.6484C13.4421 56.0084 13.5846 56.3114 13.7676 56.5574C13.9506 56.8004 14.1666 56.9849 14.4156 57.1109C14.6646 57.2339 14.9346 57.2954 15.2256 57.2954C15.6036 57.2954 15.9126 57.2339 16.1526 57.1109C16.3956 56.9879 16.5831 56.8364 16.7151 56.6564C16.8471 56.4734 16.9326 56.2994 16.9716 56.1344V55.1129H15.2436V54.6449H17.4801V57.7139H17.0526L17.0256 56.9264C16.9986 56.9864 16.9446 57.0644 16.8636 57.1604C16.7826 57.2564 16.6701 57.3539 16.5261 57.4529C16.3821 57.5489 16.2006 57.6314 15.9816 57.7004C15.7656 57.7664 15.5106 57.7994 15.2166 57.7994ZM21.1287 57.7949C20.6607 57.7949 20.2467 57.6884 19.8867 57.4754C19.5267 57.2594 19.2447 56.9639 19.0407 56.5889C18.8367 56.2139 18.7347 55.7909 18.7347 55.3199C18.7347 54.8459 18.8367 54.4244 19.0407 54.0554C19.2447 53.6864 19.5267 53.3969 19.8867 53.1869C20.2467 52.9769 20.6607 52.8719 21.1287 52.8719C21.5967 52.8719 22.0107 52.9769 22.3707 53.1869C22.7307 53.3969 23.0127 53.6864 23.2167 54.0554C23.4207 54.4244 23.5227 54.8459 23.5227 55.3199C23.5227 55.7909 23.4207 56.2139 23.2167 56.5889C23.0127 56.9639 22.7307 57.2594 22.3707 57.4754C22.0107 57.6884 21.5967 57.7949 21.1287 57.7949ZM21.1287 57.2864C21.4887 57.2864 21.8052 57.2024 22.0782 57.0344C22.3542 56.8664 22.5702 56.6339 22.7262 56.3369C22.8822 56.0399 22.9602 55.7009 22.9602 55.3199C22.9602 54.9359 22.8822 54.5984 22.7262 54.3074C22.5702 54.0164 22.3542 53.7899 22.0782 53.6279C21.8052 53.4629 21.4887 53.3804 21.1287 53.3804C20.7717 53.3804 20.4552 53.4629 20.1792 53.6279C19.9032 53.7899 19.6872 54.0164 19.5312 54.3074C19.3752 54.5984 19.2972 54.9359 19.2972 55.3199C19.2972 55.7009 19.3752 56.0399 19.5312 56.3369C19.6872 56.6339 19.9032 56.8664 20.1792 57.0344C20.4552 57.2024 20.7717 57.2864 21.1287 57.2864ZM26.4818 57.7994C26.1158 57.7994 25.7963 57.7439 25.5233 57.6329C25.2503 57.5219 25.0388 57.3614 24.8888 57.1514C24.7418 56.9384 24.6683 56.6819 24.6683 56.3819C24.6683 56.0789 24.7463 55.8269 24.9023 55.6259C25.0583 55.4219 25.2803 55.2629 25.5683 55.1489C25.8593 55.0349 26.2028 54.9584 26.5988 54.9194C27.2078 54.8564 27.6443 54.7934 27.9083 54.7304C28.1753 54.6644 28.3088 54.5594 28.3088 54.4154C28.3088 54.4064 28.3088 54.3974 28.3088 54.3884C28.3088 54.3764 28.3088 54.3644 28.3088 54.3524C28.3088 54.0434 28.1828 53.8034 27.9308 53.6324C27.6788 53.4614 27.3203 53.3759 26.8553 53.3759C26.3693 53.3759 25.9898 53.4719 25.7168 53.6639C25.4468 53.8559 25.3118 54.1409 25.3118 54.5189H24.7628C24.7628 54.1739 24.8498 53.8784 25.0238 53.6324C25.1978 53.3834 25.4423 53.1944 25.7573 53.0654C26.0723 52.9334 26.4398 52.8674 26.8598 52.8674C27.2378 52.8674 27.5783 52.9259 27.8813 53.0429C28.1843 53.1599 28.4243 53.3309 28.6013 53.5559C28.7813 53.7779 28.8713 54.0524 28.8713 54.3794C28.8713 54.4424 28.8713 54.5054 28.8713 54.5684C28.8713 54.6284 28.8713 54.6899 28.8713 54.7529V56.8679C28.8713 56.9699 28.8758 57.0674 28.8848 57.1604C28.8938 57.2534 28.9073 57.3344 28.9253 57.4034C28.9523 57.4904 28.9808 57.5594 29.0108 57.6104C29.0408 57.6614 29.0648 57.6959 29.0828 57.7139H28.5203C28.5083 57.7019 28.4888 57.6704 28.4618 57.6194C28.4348 57.5654 28.4078 57.5024 28.3808 57.4304C28.3568 57.3554 28.3403 57.2714 28.3313 57.1784C28.3223 57.0854 28.3178 56.9729 28.3178 56.8409L28.4078 56.9084C28.3118 57.0854 28.1723 57.2414 27.9893 57.3764C27.8063 57.5084 27.5873 57.6119 27.3323 57.6869C27.0773 57.7619 26.7938 57.7994 26.4818 57.7994ZM26.5673 57.2999C26.8913 57.2999 27.1838 57.2474 27.4448 57.1424C27.7088 57.0344 27.9188 56.8814 28.0748 56.6834C28.2308 56.4824 28.3088 56.2394 28.3088 55.9544V54.8384L28.4303 55.0454C28.2563 55.1324 28.0193 55.2029 27.7193 55.2569C27.4193 55.3079 27.0938 55.3499 26.7428 55.3829C26.2478 55.4309 25.8713 55.5254 25.6133 55.6664C25.3583 55.8074 25.2308 56.0369 25.2308 56.3549C25.2308 56.6609 25.3433 56.8949 25.5683 57.0569C25.7933 57.2189 26.1263 57.2999 26.5673 57.2999ZM31.8483 57.7859C31.7133 57.7859 31.5813 57.7694 31.4523 57.7364C31.3263 57.7034 31.2123 57.6449 31.1103 57.5609C31.0113 57.4739 30.9333 57.3554 30.8763 57.2054C30.8193 57.0554 30.7908 56.8649 30.7908 56.6339C30.7908 56.5709 30.7908 56.5064 30.7908 56.4404C30.7908 56.3714 30.7908 56.2994 30.7908 56.2244V53.4254H29.6388V52.9349H30.4668C30.5448 52.9349 30.6063 52.9319 30.6513 52.9259C30.6963 52.9199 30.7278 52.9049 30.7458 52.8809C30.7668 52.8569 30.7788 52.8194 30.7818 52.7684C30.7878 52.7174 30.7908 52.6469 30.7908 52.5569V51.3914H31.3488V52.9349H32.8788V53.4254H31.3488V56.0399C31.3488 56.1119 31.3488 56.1809 31.3488 56.2469C31.3488 56.3129 31.3488 56.3744 31.3488 56.4314C31.3488 56.7014 31.3878 56.9129 31.4658 57.0659C31.5468 57.2189 31.6983 57.2954 31.9203 57.2954C32.0043 57.2954 32.0868 57.2879 32.1678 57.2729C32.2488 57.2579 32.3103 57.2414 32.3523 57.2234V57.7094C32.3013 57.7304 32.2308 57.7484 32.1408 57.7634C32.0508 57.7784 31.9533 57.7859 31.8483 57.7859Z" fill="#797D86"/>
<g clip-path="url(#clip0_2906_9)">
<path d="M31.874 7.85033L31.8738 7.85029C31.8071 7.83698 31.1103 7.70341 30.1906 7.76712C29.2725 7.83073 28.109 8.09268 27.1335 8.89176C26.3549 9.52961 25.8298 10.387 25.5552 11.4384C23.9442 10.866 22.1381 10.8357 20.4451 11.4386C20.1704 10.3871 19.6454 9.5297 18.8666 8.89181C17.8912 8.09274 16.7277 7.83076 15.8095 7.76713C14.8898 7.70339 14.193 7.83694 14.1262 7.85032L14.1261 7.85034C13.4499 7.98613 13.0085 8.64486 13.1444 9.32235L13.1444 9.32237C13.28 9.99762 13.9346 10.4377 14.6115 10.3029C14.6454 10.2968 15.0568 10.226 15.5867 10.2552C16.1449 10.2859 16.7984 10.4258 17.289 10.8313C17.7557 11.2171 18.0537 11.845 18.1434 12.7456C17.6034 13.1923 17.1244 13.714 16.7228 14.2981H10.4147C9.72431 14.2981 9.16461 14.8578 9.16461 15.5482C9.16461 18.3607 11.6006 20.5488 14.366 20.2792C14.3165 20.4224 14.2575 20.5934 14.1893 20.7911C13.7939 21.9365 13.0878 23.9821 12.1283 26.7613C11.9029 27.4139 12.2493 28.1256 12.9019 28.3508C13.5546 28.5761 14.2662 28.2297 14.4915 27.5772L14.8361 26.5791L18.1645 34.9663C18.9535 36.9547 20.8443 38.2422 22.9824 38.2493L22.9844 38.2495C22.9883 38.2497 22.9937 38.2499 23.0001 38.2499C23.0032 38.2499 23.006 38.2498 23.0086 38.2498C23.0113 38.2497 23.0138 38.2496 23.0158 38.2495L23.0178 38.2493C25.1554 38.2422 27.0462 36.9548 27.8355 34.9664L27.8355 34.9663L31.1639 26.5793L31.5084 27.5772L31.5084 27.5772C31.7339 28.23 32.4455 28.576 33.098 28.3508L33.098 28.3508C33.7506 28.1255 34.0969 27.4139 33.8716 26.7613L33.6353 26.8429L33.8716 26.7613C33.6484 26.1147 33.4543 25.5528 33.2839 25.0594C32.3135 22.25 32.1096 21.6595 31.6473 20.2805C34.4153 20.543 36.8354 18.3476 36.8354 15.5482C36.8354 14.8578 36.2757 14.2981 35.5853 14.2981H29.2799C28.891 13.7005 28.4411 13.2098 27.8573 12.7402C27.9477 11.8424 28.2454 11.2163 28.7111 10.8313C29.2017 10.4257 29.8552 10.2859 30.413 10.255C30.9495 10.2253 31.3633 10.2983 31.3823 10.3017C31.3829 10.3018 31.3831 10.3018 31.383 10.3018L31.4312 10.0565L31.3822 10.3016C32.0595 10.437 32.7177 9.99883 32.8536 9.32198C32.9895 8.645 32.5508 7.9862 31.874 7.85033ZM25.4894 29.5873L25.4894 29.5873C26.1883 28.7802 25.6155 27.5188 24.5445 27.5188H21.4557C20.3884 27.5188 19.8096 28.7774 20.5108 29.5873L20.5108 29.5873L21.7501 31.0182V35.4461C21.1876 35.1541 20.735 34.6656 20.4885 34.0442L20.2561 34.1364L20.4885 34.0442L16.0874 22.9541C17.6452 18.4424 17.7367 18.1782 17.8273 17.9138C17.8471 17.8562 17.8668 17.7986 17.9016 17.6971L17.9016 17.697C18.8603 14.8974 20.9328 13.4848 22.9746 13.4584C25.0127 13.432 27.1017 14.7862 28.098 17.6956L28.098 17.6957C28.2809 18.2293 28.9957 20.2982 29.4813 21.7037C29.6828 22.2868 29.8448 22.7558 29.9131 22.9536L25.5117 34.0441C25.2651 34.6654 24.8125 35.154 24.2501 35.446V31.0182L25.4894 29.5873ZM15.4198 17.2264C14.3864 18.1535 12.7865 17.9211 12.0426 16.7983H15.5665C15.5527 16.8385 15.5387 16.8794 15.5245 16.9211C15.4912 17.0182 15.4565 17.1194 15.4198 17.2264ZM33.9572 16.7983C33.227 17.8991 31.6659 18.1529 30.6226 17.2625C30.5655 17.1024 30.5094 16.9478 30.4539 16.7983H33.9572Z" fill="#FCC436" stroke="#FCC436" stroke-width="0.5"/>
<path d="M25.7548 23.9374C26.4854 23.9374 27.0777 23.3451 27.0777 22.6145C27.0777 21.8839 26.4854 21.2916 25.7548 21.2916C25.0242 21.2916 24.4319 21.8839 24.4319 22.6145C24.4319 23.3451 25.0242 23.9374 25.7548 23.9374Z" fill="#FCC436"/>
<path d="M20.2855 23.9374C21.0161 23.9374 21.6084 23.3451 21.6084 22.6145C21.6084 21.8839 21.0161 21.2916 20.2855 21.2916C19.5548 21.2916 18.9625 21.8839 18.9625 22.6145C18.9625 23.3451 19.5548 23.9374 20.2855 23.9374Z" fill="#FCC436"/>
</g>
<defs>
<clipPath id="clip0_2906_9">
<rect width="30" height="30" fill="white" transform="translate(8 8)"/>
</clipPath>
</defs>
</svg>
