<svg width="54" height="60" viewBox="0 0 54 60" fill="none" xmlns="http://www.w3.org/2000/svg">
<rect x="4.9056" y="0.905605" width="43.469" height="43.469" rx="21.7345" stroke="#FCC436" stroke-width="1.81121"/>
<path d="M25.7609 12C24.6231 12 23.653 12.5314 22.9076 13.284C22.501 13.127 22.1158 12.913 21.6522 12.913C19.6442 12.913 18 14.5572 18 16.5652C18 17.5032 18.3816 18.3414 18.9701 18.9905C18.9344 19.0904 18.913 19.1974 18.913 19.3043V31.1739C18.913 32.6754 20.1506 33.913 21.6522 33.913H32.6087C34.1102 33.913 35.3478 32.6754 35.3478 31.1739V29.3478H36.2609C37.7624 29.3478 39 28.1102 39 26.6087V22.9565C39 21.455 37.7624 20.2174 36.2609 20.2174H35.3478V19.1332C35.355 19.0654 35.355 19.0012 35.3478 18.9334C35.9042 18.2914 36.2609 17.4747 36.2609 16.5652C36.2609 14.5572 34.6167 12.913 32.6087 12.913C31.9275 12.913 31.3247 13.1556 30.7826 13.4837C30.2405 13.1556 29.6377 12.913 28.9565 12.913C28.7211 12.913 28.5357 12.9844 28.3288 13.0272C27.6191 12.4316 26.7595 12 25.7609 12ZM23.6495 19.5326C24.2736 19.9214 24.9727 20.2174 25.7609 20.2174C25.8572 20.2174 25.9 20.171 25.9891 20.1603C25.9142 20.5134 25.9178 20.9664 25.8179 21.2731C25.6004 21.9436 25.3043 22.5856 25.3043 23.413C25.3043 25.1678 26.7452 26.6087 28.5 26.6087C30.2548 26.6087 31.6957 25.1678 31.6957 23.413C31.6957 22.5856 31.3996 21.94 31.1821 21.2731C31.0644 20.9093 31.0323 20.3957 30.9538 19.9606C31.5387 20.0961 31.8027 20.2174 32.6087 20.2174C32.9226 20.2174 33.2293 20.1496 33.5217 20.0747V20.8451C33.4682 21.0234 33.4682 21.2089 33.5217 21.3872V28.2636C33.4968 28.3849 33.4968 28.5132 33.5217 28.6345V31.1739C33.5217 31.6911 33.1258 32.087 32.6087 32.087H21.6522C21.135 32.087 20.7391 31.6911 20.7391 31.1739V20.0747C21.0316 20.1496 21.3383 20.2174 21.6522 20.2174C22.4047 20.2174 23.0681 19.9249 23.6495 19.5326ZM35.3478 22.0435H36.2609C36.778 22.0435 37.1739 22.4394 37.1739 22.9565V26.6087C37.1739 27.1258 36.778 27.5217 36.2609 27.5217H35.3478V22.0435Z" fill="#FCC436"/>
<path d="M17.4269 57.7994C17.0489 57.7994 16.7024 57.7229 16.3874 57.5699C16.0724 57.4139 15.7979 57.1904 15.5639 56.8994C15.3329 56.6054 15.1529 56.2469 15.0239 55.8239C14.8979 55.4009 14.8349 54.9224 14.8349 54.3884C14.8349 53.8514 14.8979 53.3744 15.0239 52.9574C15.1529 52.5374 15.3329 52.1819 15.5639 51.8909C15.7979 51.5999 16.0724 51.3794 16.3874 51.2294C16.7054 51.0794 17.0519 51.0044 17.4269 51.0044C17.8049 51.0044 18.1514 51.0794 18.4664 51.2294C18.7844 51.3794 19.0589 51.5999 19.2899 51.8909C19.5239 52.1819 19.7039 52.5374 19.8299 52.9574C19.9589 53.3744 20.0234 53.8514 20.0234 54.3884C20.0234 54.9224 19.9589 55.4009 19.8299 55.8239C19.7039 56.2469 19.5239 56.6054 19.2899 56.8994C19.0589 57.1904 18.7844 57.4139 18.4664 57.5699C18.1514 57.7229 17.8049 57.7994 17.4269 57.7994ZM17.4269 57.2954C17.8259 57.2954 18.1769 57.1829 18.4799 56.9579C18.7859 56.7329 19.0244 56.4044 19.1954 55.9724C19.3694 55.5404 19.4564 55.0124 19.4564 54.3884C19.4564 53.7614 19.3694 53.2349 19.1954 52.8089C19.0214 52.3799 18.7814 52.0559 18.4754 51.8369C18.1724 51.6179 17.8229 51.5084 17.4269 51.5084C17.0339 51.5084 16.6844 51.6179 16.3784 51.8369C16.0724 52.0559 15.8324 52.3799 15.6584 52.8089C15.4844 53.2349 15.3974 53.7614 15.3974 54.3884C15.3974 55.0154 15.4844 55.5449 15.6584 55.9769C15.8324 56.4089 16.0724 56.7374 16.3784 56.9624C16.6844 57.1844 17.0339 57.2954 17.4269 57.2954ZM22.9405 57.7859C22.8055 57.7859 22.6735 57.7694 22.5445 57.7364C22.4185 57.7034 22.3045 57.6449 22.2025 57.5609C22.1035 57.4739 22.0255 57.3554 21.9685 57.2054C21.9115 57.0554 21.883 56.8649 21.883 56.6339C21.883 56.5709 21.883 56.5064 21.883 56.4404C21.883 56.3714 21.883 56.2994 21.883 56.2244V53.4254H20.731V52.9349H21.559C21.637 52.9349 21.6985 52.9319 21.7435 52.9259C21.7885 52.9199 21.82 52.9049 21.838 52.8809C21.859 52.8569 21.871 52.8194 21.874 52.7684C21.88 52.7174 21.883 52.6469 21.883 52.5569V51.3914H22.441V52.9349H23.971V53.4254H22.441V56.0399C22.441 56.1119 22.441 56.1809 22.441 56.2469C22.441 56.3129 22.441 56.3744 22.441 56.4314C22.441 56.7014 22.48 56.9129 22.558 57.0659C22.639 57.2189 22.7905 57.2954 23.0125 57.2954C23.0965 57.2954 23.179 57.2879 23.26 57.2729C23.341 57.2579 23.4025 57.2414 23.4445 57.2234V57.7094C23.3935 57.7304 23.323 57.7484 23.233 57.7634C23.143 57.7784 23.0455 57.7859 22.9405 57.7859ZM28.4707 57.7139V55.9094C28.4707 55.8194 28.4707 55.7144 28.4707 55.5944C28.4707 55.4744 28.4707 55.3544 28.4707 55.2344C28.4707 55.1114 28.4707 55.0049 28.4707 54.9149C28.4707 54.4259 28.3612 54.0509 28.1422 53.7899C27.9262 53.5259 27.5932 53.3939 27.1432 53.3939C26.8402 53.3939 26.5717 53.4569 26.3377 53.5829C26.1037 53.7089 25.9192 53.8769 25.7842 54.0869C25.6522 54.2939 25.5862 54.5234 25.5862 54.7754L25.2172 54.6674C25.2172 54.3464 25.3027 54.0494 25.4737 53.7764C25.6477 53.5034 25.8862 53.2844 26.1892 53.1194C26.4952 52.9514 26.8447 52.8674 27.2377 52.8674C27.8077 52.8674 28.2472 53.0399 28.5562 53.3849C28.8682 53.7299 29.0242 54.2069 29.0242 54.8159C29.0242 54.9779 29.0242 55.1609 29.0242 55.3649C29.0242 55.5659 29.0242 55.7714 29.0242 55.9814V57.7139H28.4707ZM25.0282 57.7139V50.6804H25.5862V57.7139H25.0282ZM30.6206 55.5584V55.0589H34.4906L34.3826 55.2119C34.3826 55.1939 34.3826 55.1789 34.3826 55.1669C34.3826 55.1519 34.3826 55.1369 34.3826 55.1219C34.3826 54.8129 34.3166 54.5249 34.1846 54.2579C34.0526 53.9909 33.8606 53.7764 33.6086 53.6144C33.3596 53.4524 33.0551 53.3714 32.6951 53.3714C32.3291 53.3714 32.0066 53.4554 31.7276 53.6234C31.4486 53.7884 31.2311 54.0179 31.0751 54.3119C30.9191 54.6029 30.8411 54.9419 30.8411 55.3289C30.8411 55.7189 30.9176 56.0624 31.0706 56.3594C31.2266 56.6534 31.4441 56.8829 31.7231 57.0479C32.0021 57.2099 32.3276 57.2909 32.6996 57.2909C32.9726 57.2909 33.2096 57.2579 33.4106 57.1919C33.6146 57.1229 33.7826 57.0329 33.9146 56.9219C34.0496 56.8109 34.1516 56.6939 34.2206 56.5709C34.2926 56.4449 34.3346 56.3264 34.3466 56.2154H34.9001C34.8881 56.3924 34.8311 56.5739 34.7291 56.7599C34.6301 56.9429 34.4876 57.1139 34.3016 57.2729C34.1186 57.4319 33.8906 57.5609 33.6176 57.6599C33.3476 57.7559 33.0356 57.8039 32.6816 57.8039C32.2196 57.8039 31.8086 57.6989 31.4486 57.4889C31.0916 57.2789 30.8096 56.9894 30.6026 56.6204C30.3986 56.2484 30.2966 55.8209 30.2966 55.3379C30.2966 54.8519 30.4001 54.4244 30.6071 54.0554C30.8141 53.6834 31.0976 53.3924 31.4576 53.1824C31.8176 52.9724 32.2271 52.8674 32.6861 52.8674C33.1541 52.8674 33.5591 52.9739 33.9011 53.1869C34.2431 53.3999 34.5071 53.6894 34.6931 54.0554C34.8791 54.4184 34.9721 54.8264 34.9721 55.2794C34.9721 55.3184 34.9706 55.3679 34.9676 55.4279C34.9676 55.4879 34.9661 55.5314 34.9631 55.5584H30.6206ZM36.287 57.7139V52.9349H36.845V54.3434L36.647 54.2804C36.665 54.1304 36.7085 53.9744 36.7775 53.8124C36.8495 53.6474 36.9485 53.4929 37.0745 53.3489C37.2005 53.2049 37.358 53.0894 37.547 53.0024C37.739 52.9124 37.967 52.8674 38.231 52.8674C38.423 52.8674 38.5775 52.8839 38.6945 52.9169C38.8115 52.9499 38.885 52.9754 38.915 52.9934L38.762 53.5334C38.732 53.5124 38.6705 53.4854 38.5775 53.4524C38.4845 53.4194 38.351 53.4029 38.177 53.4029C37.925 53.4029 37.7135 53.4524 37.5425 53.5514C37.3715 53.6474 37.235 53.7734 37.133 53.9294C37.031 54.0854 36.9575 54.2519 36.9125 54.4289C36.8675 54.6029 36.845 54.7709 36.845 54.9329V57.7139H36.287Z" fill="#797D86"/>
</svg>
