<svg width="110" height="18" viewBox="0 0 110 18" fill="none" xmlns="http://www.w3.org/2000/svg">
<path d="M0.367188 14L3.14711 0.941433H7.55603C8.61252 0.941433 9.39751 1.17752 9.911 1.64969C10.4245 2.11596 10.6812 2.73864 10.6812 3.51773C10.6812 3.984 10.6075 4.45618 10.4599 4.93425C10.3123 5.41233 10.1028 5.85499 9.83132 6.26224C9.55982 6.66949 9.2352 7.00591 8.85746 7.27151C8.48563 7.53711 8.07543 7.69352 7.62686 7.74074C7.89836 7.76434 8.1492 7.83222 8.37939 7.94436C8.61547 8.0506 8.80434 8.21881 8.946 8.449C9.09355 8.67328 9.16733 8.97134 9.16733 9.34318C9.16733 9.50253 9.14077 9.72387 9.08765 10.0072C9.03453 10.2905 8.9696 10.6062 8.89288 10.9545C8.81615 11.2968 8.73942 11.6421 8.66269 11.9903C8.58596 12.3326 8.52104 12.6484 8.46792 12.9376C8.4148 13.2268 8.38824 13.454 8.38824 13.6193C8.38824 13.7078 8.39119 13.7875 8.39709 13.8583C8.4089 13.9233 8.42365 13.9705 8.44136 14H6.9186C6.88909 13.9233 6.87433 13.8052 6.87433 13.6459C6.87433 13.4924 6.89794 13.2829 6.94516 13.0173C6.99828 12.7458 7.06025 12.4536 7.13108 12.1408C7.20781 11.8221 7.28158 11.5063 7.35241 11.1935C7.42324 10.8748 7.48226 10.5826 7.52947 10.317C7.58259 10.0514 7.60915 9.84486 7.60915 9.69731C7.60915 9.24874 7.44979 8.92412 7.13108 8.72345C6.81236 8.52277 6.37265 8.42244 5.81194 8.42244H2.36802L3.14711 7.90009L1.84568 14H0.367188ZM3.20908 7.59908L2.61592 7.09445H6.1041C6.6589 7.09445 7.16059 6.9528 7.60915 6.66949C8.05772 6.38619 8.4148 6.0114 8.6804 5.54513C8.946 5.07886 9.0788 4.56832 9.0788 4.01351C9.0788 3.47051 8.92239 3.04556 8.60957 2.73864C8.29676 2.42583 7.78917 2.26942 7.08681 2.26942H3.69601L4.51937 1.41951L3.20908 7.59908Z" fill="#41197F"/>
<path d="M15.3775 2.26942L16.2362 1.41066L14.9879 7.30693L14.7223 6.78458H19.7333L19.4588 8.11257H14.4479L14.926 7.59023L13.6688 13.5308L13.1642 12.672H19.4677L19.1844 14H12.0486L14.8286 0.941433H21.9643L21.681 2.26942H15.3775Z" fill="#41197F"/>
<path d="M32.3496 9.45827C32.2374 9.98356 32.0309 10.5236 31.7299 11.0784C31.4348 11.6273 31.0452 12.1379 30.5612 12.61C30.0832 13.0763 29.5224 13.454 28.8791 13.7432C28.2358 14.0325 27.5128 14.1771 26.7101 14.1771C25.7834 14.1771 25.022 13.9734 24.4259 13.5662C23.8357 13.1589 23.3989 12.6012 23.1156 11.8929C22.8382 11.1788 22.6995 10.3672 22.6995 9.45827C22.6995 8.35456 22.85 7.28627 23.1511 6.25339C23.458 5.22051 23.8977 4.29387 24.4702 3.47346C25.0486 2.64716 25.7451 1.99202 26.5596 1.50804C27.38 1.02406 28.3036 0.782074 29.3306 0.782074C30.2868 0.782074 31.0541 0.976846 31.6325 1.36639C32.2168 1.75003 32.6388 2.23991 32.8985 2.83603C33.1582 3.43215 33.288 4.04597 33.288 4.67751C33.288 4.83687 33.2792 4.98442 33.2615 5.12017C33.2438 5.25592 33.2202 5.37692 33.1906 5.48315H31.6767C31.6944 5.39462 31.7122 5.27658 31.7299 5.12902C31.7535 4.97557 31.7653 4.83392 31.7653 4.70407C31.7653 4.23189 31.6708 3.80399 31.482 3.42034C31.299 3.0367 31.0157 2.72979 30.6321 2.49961C30.2484 2.26942 29.7585 2.15433 29.1624 2.15433C28.3656 2.15433 27.6603 2.36681 27.0465 2.79176C26.4327 3.21672 25.9162 3.78333 25.4972 4.49159C25.0781 5.19985 24.7623 5.98779 24.5499 6.85541C24.3374 7.71713 24.2311 8.5877 24.2311 9.46712C24.2311 10.5531 24.4466 11.3824 24.8774 11.9549C25.3083 12.5274 25.9693 12.8137 26.8606 12.8137C27.3859 12.8137 27.8698 12.7192 28.3125 12.5303C28.7611 12.3356 29.1565 12.0759 29.4988 11.7513C29.8471 11.4266 30.1333 11.0666 30.3576 10.6712C30.5878 10.2698 30.7471 9.86552 30.8357 9.45827H32.3496Z" fill="#41197F"/>
<path d="M34.5651 14L37.3362 0.941433H38.8324L36.0702 14H34.5651Z" fill="#41197F"/>
<path d="M41.3099 14H39.796L42.5759 0.941433H46.1526C47.0439 0.941433 47.7639 1.09489 48.3128 1.4018C48.8617 1.70871 49.2631 2.12187 49.5169 2.64126C49.7766 3.15475 49.9064 3.72726 49.9064 4.35879C49.9064 5.13788 49.7766 5.84024 49.5169 6.46587C49.2572 7.08559 48.8883 7.61974 48.4102 8.06831C47.9322 8.51097 47.3626 8.85034 46.7015 9.08643C46.0464 9.32252 45.3204 9.44056 44.5236 9.44056H42.2838L41.3099 14ZM42.3989 8.88281L41.8854 8.11257H44.5325C45.3175 8.11257 45.9992 7.95616 46.5776 7.64335C47.156 7.33053 47.6046 6.89377 47.9233 6.33307C48.242 5.77236 48.4014 5.11722 48.4014 4.36764C48.4014 3.91908 48.3099 3.54134 48.1269 3.23443C47.9499 2.92161 47.6666 2.68257 47.277 2.51731C46.8934 2.35205 46.3917 2.26942 45.772 2.26942H43.1248L43.9836 1.41066L42.3989 8.88281Z" fill="#41197F"/>
<path d="M54.4605 2.26942L55.3192 1.41066L54.0709 7.30693L53.8053 6.78458H58.8163L58.5418 8.11257H53.5309L54.0089 7.59023L52.7518 13.5308L52.2472 12.672H58.5507L58.2674 14H51.1316L53.9116 0.941433H61.0473L60.764 2.26942H54.4605Z" fill="#41197F"/>
<path d="M65.7297 14.1771C64.9801 14.1771 64.3279 14.0708 63.7731 13.8583C63.2183 13.64 62.7904 13.3212 62.4894 12.9022C62.1884 12.4772 62.0379 11.9519 62.0379 11.3263C62.0379 11.0371 62.0585 10.7715 62.0999 10.5295C62.1471 10.2875 62.209 10.0072 62.2858 9.68845H63.7908C63.7141 9.99537 63.658 10.2551 63.6226 10.4675C63.5931 10.68 63.5784 10.8895 63.5784 11.0961C63.5784 11.7218 63.7731 12.1644 64.1627 12.4241C64.5581 12.6838 65.1306 12.8137 65.8802 12.8137C66.5176 12.8137 67.0872 12.7281 67.5889 12.5569C68.0906 12.3798 68.486 12.1113 68.7752 11.7513C69.0644 11.3853 69.209 10.9161 69.209 10.3436C69.209 9.78289 68.9788 9.32252 68.5185 8.96249C68.064 8.60245 67.4443 8.29554 66.6593 8.04175C66.0632 7.84107 65.5261 7.59318 65.048 7.29807C64.5758 6.99706 64.201 6.63408 63.9236 6.20912C63.6521 5.78417 63.5164 5.29133 63.5164 4.73063C63.5164 4.09909 63.6374 3.53839 63.8794 3.04851C64.1273 2.55863 64.4696 2.14548 64.9063 1.80905C65.3431 1.47263 65.8507 1.21883 66.4291 1.04767C67.0075 0.870606 67.6331 0.782074 68.306 0.782074C69.0556 0.782074 69.7048 0.888313 70.2537 1.10079C70.8085 1.30737 71.2364 1.61428 71.5374 2.02153C71.8384 2.42878 71.9889 2.93342 71.9889 3.53544C71.9889 3.79513 71.9683 4.05483 71.927 4.31452C71.8857 4.57422 71.8325 4.84572 71.7676 5.12902H70.2537C70.3186 4.85752 70.3659 4.61553 70.3954 4.40306C70.4308 4.18468 70.4485 3.96925 70.4485 3.75677C70.4485 3.15475 70.2508 2.73569 69.8553 2.49961C69.4599 2.26352 68.8903 2.14548 68.1466 2.14548C67.5446 2.14548 67.0075 2.22515 66.5353 2.38451C66.0632 2.54387 65.6913 2.79471 65.4198 3.13704C65.1483 3.47346 65.0126 3.91318 65.0126 4.45618C65.0126 5.0759 65.2546 5.56283 65.7385 5.91696C66.2225 6.26519 66.8688 6.58096 67.6774 6.86426C68.3089 7.08264 68.8519 7.33939 69.3064 7.6345C69.7609 7.9296 70.1091 8.27783 70.3511 8.67918C70.599 9.08053 70.7229 9.54975 70.7229 10.0868C70.7229 10.9545 70.5016 11.6952 70.0589 12.309C69.6222 12.9169 69.0261 13.3803 68.2706 13.699C67.521 14.0177 66.674 14.1771 65.7297 14.1771Z" fill="#41197F"/>
<path d="M80.0119 14.1976C79.3532 14.1976 78.7662 14.0945 78.2507 13.8883C77.7353 13.6764 77.3287 13.37 77.0308 12.9691C76.733 12.5682 76.5841 12.0814 76.5841 11.5086C76.5841 10.85 76.7702 10.3174 77.1425 9.91073C77.5148 9.49836 77.9987 9.18623 78.5944 8.97432C79.19 8.75668 79.82 8.61636 80.4844 8.55336C81.4466 8.46173 82.1023 8.38154 82.4517 8.31282C82.8068 8.23836 82.9843 8.11236 82.9843 7.93482C82.9843 7.92909 82.9843 7.92623 82.9843 7.92623C82.9843 7.9205 82.9843 7.91764 82.9843 7.91764C82.9843 7.64273 82.8383 7.41936 82.5462 7.24755C82.2598 7.07573 81.8647 6.98982 81.3607 6.98982C80.828 6.98982 80.4242 7.08718 80.1493 7.28191C79.8802 7.47091 79.7456 7.76014 79.7456 8.14959H76.7216C76.7216 7.39932 76.9277 6.76932 77.3401 6.25959C77.7582 5.74414 78.3195 5.35468 79.0239 5.09123C79.7284 4.82777 80.5159 4.69604 81.3864 4.69604C82.2112 4.69604 82.9757 4.81918 83.6802 5.06545C84.3904 5.31173 84.9631 5.68686 85.3984 6.19086C85.8394 6.69486 86.0599 7.33632 86.0599 8.11523C86.0599 8.2355 86.0599 8.35577 86.0599 8.47605C86.0599 8.59632 86.0599 8.71659 86.0599 8.83686V11.8609C86.0599 12.1014 86.0656 12.3362 86.0771 12.5653C86.0885 12.7887 86.12 12.9949 86.1716 13.1839C86.2346 13.39 86.3119 13.5647 86.4035 13.7079C86.5009 13.8511 86.5782 13.9485 86.6355 14H83.6372C83.5914 13.9542 83.5227 13.8654 83.4311 13.7337C83.3452 13.602 83.2707 13.4502 83.2077 13.2784C83.1332 13.0493 83.0788 12.8288 83.0445 12.6169C83.0101 12.3992 82.9929 12.1415 82.9929 11.8437L83.6458 12.2904C83.4855 12.6856 83.222 13.0264 82.8555 13.3127C82.4947 13.5991 82.068 13.8196 81.5754 13.9742C81.0829 14.1231 80.5617 14.1976 80.0119 14.1976ZM80.8882 11.9725C81.2432 11.9725 81.584 11.901 81.9105 11.7578C82.2369 11.6146 82.5061 11.3855 82.718 11.0705C82.9299 10.7555 83.0359 10.3345 83.0359 9.80764V9.1805L83.8091 9.86777C83.4311 9.9995 83.0015 10.1112 82.5204 10.2028C82.0393 10.2887 81.5697 10.3546 81.1115 10.4004C80.6247 10.452 80.261 10.535 80.0205 10.6495C79.7799 10.7641 79.6597 10.9531 79.6597 11.2165C79.6597 11.4685 79.7627 11.6575 79.9689 11.7835C80.1808 11.9095 80.4872 11.9725 80.8882 11.9725Z" fill="#41197F"/>
<path d="M87.8432 17.7542V4.87645H90.9101V17.7542H87.8432ZM93.6678 14.2148C92.9462 14.2148 92.2847 14.0172 91.6833 13.622C91.0877 13.2211 90.6123 12.6856 90.2572 12.0155C89.9021 11.3397 89.7246 10.5865 89.7246 9.75609C89.7246 9.73318 89.7246 9.71027 89.7246 9.68736C89.7246 9.65873 89.7246 9.63009 89.7246 9.60145L90.9101 9.57568C90.9101 9.59286 90.9101 9.61291 90.9101 9.63582C90.9101 9.653 90.9101 9.66732 90.9101 9.67877C90.9101 10.0797 91.0018 10.4262 91.185 10.7183C91.374 11.0046 91.6146 11.2251 91.9067 11.3798C92.2045 11.5287 92.5109 11.6031 92.8259 11.6031C93.3356 11.6031 93.7881 11.4256 94.1833 11.0705C94.5784 10.7154 94.776 10.1541 94.776 9.38668C94.776 8.61923 94.5784 8.06655 94.1833 7.72864C93.7938 7.385 93.3413 7.21318 92.8259 7.21318C92.5166 7.21318 92.2131 7.28764 91.9153 7.43654C91.6232 7.57973 91.3826 7.79164 91.1936 8.07227C91.0046 8.34718 90.9101 8.68795 90.9101 9.09459L89.7246 9.01727C89.7246 8.18109 89.9021 7.43941 90.2572 6.79223C90.6123 6.14505 91.0877 5.63532 91.6833 5.26304C92.2847 4.88504 92.9462 4.69604 93.6678 4.69604C94.4066 4.69604 95.0996 4.87645 95.7468 5.23727C96.3997 5.59809 96.9266 6.12786 97.3275 6.82659C97.7342 7.52532 97.9375 8.37868 97.9375 9.38668C97.9375 10.4462 97.7399 11.334 97.3447 12.0499C96.9495 12.7658 96.4283 13.307 95.7812 13.6735C95.134 14.0344 94.4295 14.2148 93.6678 14.2148Z" fill="#41197F"/>
<path d="M99.404 17.7542V4.87645H102.471V17.7542H99.404ZM105.229 14.2148C104.507 14.2148 103.845 14.0172 103.244 13.622C102.648 13.2211 102.173 12.6856 101.818 12.0155C101.463 11.3397 101.285 10.5865 101.285 9.75609C101.285 9.73318 101.285 9.71027 101.285 9.68736C101.285 9.65873 101.285 9.63009 101.285 9.60145L102.471 9.57568C102.471 9.59286 102.471 9.61291 102.471 9.63582C102.471 9.653 102.471 9.66732 102.471 9.67877C102.471 10.0797 102.563 10.4262 102.746 10.7183C102.935 11.0046 103.175 11.2251 103.467 11.3798C103.765 11.5287 104.072 11.6031 104.387 11.6031C104.896 11.6031 105.349 11.4256 105.744 11.0705C106.139 10.7154 106.337 10.1541 106.337 9.38668C106.337 8.61923 106.139 8.06655 105.744 7.72864C105.355 7.385 104.902 7.21318 104.387 7.21318C104.077 7.21318 103.774 7.28764 103.476 7.43654C103.184 7.57973 102.943 7.79164 102.754 8.07227C102.565 8.34718 102.471 8.68795 102.471 9.09459L101.285 9.01727C101.285 8.18109 101.463 7.43941 101.818 6.79223C102.173 6.14505 102.648 5.63532 103.244 5.26304C103.845 4.88504 104.507 4.69604 105.229 4.69604C105.967 4.69604 106.66 4.87645 107.308 5.23727C107.961 5.59809 108.487 6.12786 108.888 6.82659C109.295 7.52532 109.498 8.37868 109.498 9.38668C109.498 10.4462 109.301 11.334 108.906 12.0499C108.51 12.7658 107.989 13.307 107.342 13.6735C106.695 14.0344 105.99 14.2148 105.229 14.2148Z" fill="#41197F"/>
</svg>
